<svg width="160" height="33" viewBox="0 0 160 33" fill="none" xmlns="http://www.w3.org/2000/svg">
<g clip-path="url(#clip0_91592_215)">
<path d="M12.475 25.4201C10.0017 25.4201 7.87828 24.8951 6.10495 23.8451C4.33162 22.7718 2.96662 21.2901 2.00995 19.4001C1.05328 17.4868 0.574951 15.2818 0.574951 12.7851C0.574951 10.2884 1.05328 8.08341 2.00995 6.17008C2.96662 4.25675 4.33162 2.76341 6.10495 1.69008C7.87828 0.616745 10.0017 0.0800781 12.475 0.0800781C15.415 0.0800781 17.8183 0.815078 19.6849 2.28508C21.5749 3.73175 22.7533 5.77341 23.2199 8.41008H18.285C17.9816 7.08008 17.3283 6.04175 16.325 5.29508C15.345 4.52508 14.0383 4.14008 12.405 4.14008C10.1417 4.14008 8.36828 4.91008 7.08495 6.45008C5.80162 7.99008 5.15995 10.1018 5.15995 12.7851C5.15995 15.4684 5.80162 17.5801 7.08495 19.1201C8.36828 20.6368 10.1417 21.3951 12.405 21.3951C14.0383 21.3951 15.345 21.0451 16.325 20.3451C17.3283 19.6218 17.9816 18.6301 18.285 17.3701H23.2199C22.7533 19.8901 21.5749 21.8618 19.6849 23.2851C17.8183 24.7084 15.415 25.4201 12.475 25.4201ZM32.3657 25.4201C30.8722 25.4201 29.6473 25.1868 28.6907 24.7201C27.734 24.2301 27.0223 23.5884 26.5557 22.7951C26.089 22.0018 25.8556 21.1268 25.8556 20.1701C25.8556 18.5601 26.4857 17.2534 27.7457 16.2501C29.0057 15.2468 30.8956 14.7451 33.4156 14.7451H37.8256V14.3251C37.8256 13.1351 37.4873 12.2601 36.8106 11.7001C36.1339 11.1401 35.2939 10.8601 34.2906 10.8601C33.3806 10.8601 32.5872 11.0818 31.9107 11.5251C31.2339 11.9451 30.8139 12.5751 30.6507 13.4151H26.2757C26.3923 12.1551 26.8123 11.0584 27.5357 10.1251C28.2822 9.19175 29.239 8.48008 30.4057 7.99008C31.5723 7.47675 32.8789 7.22008 34.3256 7.22008C36.799 7.22008 38.7472 7.83841 40.1707 9.07508C41.594 10.3118 42.3056 12.0618 42.3056 14.3251V25.0001H38.4907L38.0707 22.2001C37.5573 23.1334 36.834 23.9034 35.9007 24.5101C34.9907 25.1168 33.8122 25.4201 32.3657 25.4201ZM33.3806 21.9201C34.6639 21.9201 35.6557 21.5001 36.3557 20.6601C37.079 19.8201 37.534 18.7818 37.7206 17.5451H33.9057C32.7157 17.5451 31.864 17.7668 31.3507 18.2101C30.8373 18.6301 30.5807 19.1551 30.5807 19.7851C30.5807 20.4618 30.8373 20.9868 31.3507 21.3601C31.864 21.7334 32.5406 21.9201 33.3806 21.9201ZM53.0559 25.4201C51.5159 25.4201 50.1624 25.1751 48.9958 24.6851C47.8292 24.1718 46.8959 23.4718 46.1959 22.5851C45.4958 21.6984 45.0759 20.6718 44.9359 19.5051H49.4509C49.5909 20.1818 49.9641 20.7651 50.5709 21.2551C51.2009 21.7218 52.0059 21.9551 52.9859 21.9551C53.9659 21.9551 54.6774 21.7568 55.1208 21.3601C55.5874 20.9634 55.8209 20.5084 55.8209 19.9951C55.8209 19.2484 55.4942 18.7468 54.8409 18.4901C54.1875 18.2101 53.2775 17.9418 52.1109 17.6851C51.3642 17.5218 50.6059 17.3234 49.8358 17.0901C49.0658 16.8568 48.3542 16.5651 47.7009 16.2151C47.0709 15.8418 46.5574 15.3751 46.1609 14.8151C45.7641 14.2318 45.5658 13.5201 45.5658 12.6801C45.5658 11.1401 46.1724 9.84508 47.3858 8.79508C48.6224 7.74508 50.3491 7.22008 52.5658 7.22008C54.6191 7.22008 56.2524 7.69841 57.4659 8.65508C58.7024 9.61175 59.4375 10.9301 59.6708 12.6101H55.4359C55.1792 11.3268 54.2108 10.6851 52.5308 10.6851C51.6908 10.6851 51.0374 10.8484 50.5709 11.1751C50.1274 11.5018 49.9058 11.9101 49.9058 12.4001C49.9058 12.9134 50.2441 13.3218 50.9208 13.6251C51.5975 13.9284 52.4958 14.2084 53.6158 14.4651C54.8291 14.7451 55.9375 15.0601 56.9408 15.4101C57.9674 15.7368 58.7841 16.2384 59.3909 16.9151C59.9975 17.5684 60.3008 18.5134 60.3008 19.7501C60.3242 20.8234 60.0442 21.7918 59.4608 22.6551C58.8774 23.5184 58.0374 24.1951 56.9408 24.6851C55.8442 25.1751 54.5492 25.4201 53.0559 25.4201ZM70.7577 25.0001C68.9377 25.0001 67.4793 24.5568 66.3827 23.6701C65.2859 22.7834 64.7377 21.2084 64.7377 18.9451V11.3851H61.7626V7.64008H64.7377L65.2627 2.98508H69.2177V7.64008H73.9077V11.3851H69.2177V18.9801C69.2177 19.8201 69.3927 20.4034 69.7427 20.7301C70.116 21.0334 70.7459 21.1851 71.6327 21.1851H73.8027V25.0001H70.7577ZM83.0391 25.4201C81.5458 25.4201 80.3208 25.1868 79.3641 24.7201C78.4073 24.2301 77.6958 23.5884 77.2291 22.7951C76.7624 22.0018 76.5291 21.1268 76.5291 20.1701C76.5291 18.5601 77.159 17.2534 78.4191 16.2501C79.6791 15.2468 81.5691 14.7451 84.0891 14.7451H88.4991V14.3251C88.4991 13.1351 88.1608 12.2601 87.4841 11.7001C86.8074 11.1401 85.9674 10.8601 84.9641 10.8601C84.0541 10.8601 83.2607 11.0818 82.5841 11.5251C81.9074 11.9451 81.4874 12.5751 81.3241 13.4151H76.9491C77.0658 12.1551 77.4858 11.0584 78.2091 10.1251C78.9557 9.19175 79.9124 8.48008 81.0791 7.99008C82.2458 7.47675 83.5524 7.22008 84.9991 7.22008C87.4724 7.22008 89.4208 7.83841 90.8441 9.07508C92.2674 10.3118 92.9791 12.0618 92.9791 14.3251V25.0001H89.1641L88.7441 22.2001C88.2308 23.1334 87.5074 23.9034 86.5741 24.5101C85.664 25.1168 84.4858 25.4201 83.0391 25.4201ZM84.0541 21.9201C85.3374 21.9201 86.3291 21.5001 87.0291 20.6601C87.7523 19.8201 88.2074 18.7818 88.3941 17.5451H84.5791C83.3891 17.5451 82.5374 17.7668 82.0241 18.2101C81.5108 18.6301 81.2541 19.1551 81.2541 19.7851C81.2541 20.4618 81.5108 20.9868 82.0241 21.3601C82.5374 21.7334 83.2141 21.9201 84.0541 21.9201ZM99.7784 25.0001L94.7034 7.64008H99.1484L102.158 20.1351L105.658 7.64008H110.628L114.128 20.1351L117.173 7.64008H121.618L116.508 25.0001H111.853L108.143 12.0151L104.433 25.0001H99.7784ZM128.841 25.4201C127.348 25.4201 126.123 25.1868 125.166 24.7201C124.21 24.2301 123.498 23.5884 123.031 22.7951C122.565 22.0018 122.331 21.1268 122.331 20.1701C122.331 18.5601 122.961 17.2534 124.221 16.2501C125.481 15.2468 127.371 14.7451 129.891 14.7451H134.301V14.3251C134.301 13.1351 133.963 12.2601 133.286 11.7001C132.61 11.1401 131.77 10.8601 130.766 10.8601C129.856 10.8601 129.063 11.0818 128.386 11.5251C127.71 11.9451 127.29 12.5751 127.126 13.4151H122.751C122.868 12.1551 123.288 11.0584 124.011 10.1251C124.758 9.19175 125.715 8.48008 126.881 7.99008C128.048 7.47675 129.355 7.22008 130.801 7.22008C133.275 7.22008 135.223 7.83841 136.646 9.07508C138.07 10.3118 138.781 12.0618 138.781 14.3251V25.0001H134.966L134.546 22.2001C134.033 23.1334 133.31 23.9034 132.376 24.5101C131.466 25.1168 130.288 25.4201 128.841 25.4201ZM129.856 21.9201C131.14 21.9201 132.131 21.5001 132.831 20.6601C133.555 19.8201 134.01 18.7818 134.196 17.5451H130.381C129.191 17.5451 128.34 17.7668 127.826 18.2101C127.313 18.6301 127.056 19.1551 127.056 19.7851C127.056 20.4618 127.313 20.9868 127.826 21.3601C128.34 21.7334 129.016 21.9201 129.856 21.9201ZM143.945 32.7001L147.97 23.8451H146.92L140.165 7.64008H145.03L149.895 19.8551L154.97 7.64008H159.73L148.705 32.7001H143.945Z" fill="white"/>
</g>
<defs>
<clipPath id="clip0_91592_215">
<rect width="160" height="33" fill="white"/>
</clipPath>
</defs>
</svg>
