<svg width="147" height="92" viewBox="0 0 147 92" fill="none" xmlns="http://www.w3.org/2000/svg">
<g clip-path="url(#clip0_92037_42)">
<path fill-rule="evenodd" clip-rule="evenodd" d="M18.6849 0.781452C12.8838 3.39276 7.12218 5.92494 1.40003 8.7044C0.166813 9.29788 -0.34613 10.7715 0.245816 11.998C0.837763 13.2344 2.31747 13.749 3.54083 13.1555C9.23338 10.3958 14.9456 7.88347 20.7072 5.29195C21.9503 4.72814 22.503 3.26418 21.9506 2.02777C21.3882 0.781462 19.928 0.217648 18.6849 0.781452Z" fill="#118DA8"/>
<path fill-rule="evenodd" clip-rule="evenodd" d="M61.3048 31.6722C52.8794 49.9612 45.3812 68.6656 37.3505 87.1228C36.8079 88.379 37.3801 89.8331 38.6232 90.3772C39.8761 90.9212 41.3262 90.3573 41.8787 89.1011C49.8897 70.6736 57.368 51.9989 65.7835 33.7494C66.3557 32.5031 65.8134 31.0391 64.5801 30.4654C63.337 29.8917 61.877 30.4358 61.3048 31.6722Z" fill="#118DA8"/>
<path fill-rule="evenodd" clip-rule="evenodd" d="M133.591 36.4202C136.285 53.2354 139.452 70.0011 141.958 86.846C142.165 88.1912 143.418 89.1209 144.759 88.923C146.111 88.7252 147.038 87.4593 146.841 86.1141C144.325 69.2494 141.158 52.4638 138.455 35.6288C138.238 34.2836 136.975 33.3636 135.634 33.5812C134.282 33.7988 133.374 35.0651 133.591 36.4202Z" fill="#118DA8"/>
</g>
<defs>
<clipPath id="clip0_92037_42">
<rect width="147" height="91" fill="white" transform="translate(0 0.5625)"/>
</clipPath>
</defs>
</svg>
